<?xml version="1.0" encoding="utf-8"?>
<!-- Generator: Adobe Illustrator 19.0.0, SVG Export Plug-In . SVG Version: 6.00 Build 0)  -->
<svg version="1.1" id="Layer_1" xmlns="http://www.w3.org/2000/svg" xmlns:xlink="http://www.w3.org/1999/xlink" x="0px" y="0px"
	 viewBox="174 -156 708.4 672" style="enable-background:new 174 -156 708.4 672;" xml:space="preserve">
<style type="text/css">
	.st0{fill:#FAFBFB;}
	.st1{fill:none;stroke:#FAFBFB;stroke-width:18;stroke-miterlimit:10;}
	.st2{fill:none;stroke:#FAFBFB;stroke-width:4.536;stroke-miterlimit:10;}
</style>
<g id="Layer_4">
</g>
<g>
	<g id="aGWg17_1_">
		<g>
			<g>
				<path class="st0" d="M489.4,248.2c13.8-2.4,19.6,6.3,26.8,14.5c15.2,17.2,25.5,29.4,39,52.6c12.7,21.7,21.1,38.6,29,63.1
					c2.3,7,5.2,19,3.2,26.3c-3.2,11.2-16.3,18.4-27.2,22.6c-36.6,14.3-91.5,9.7-124.3-7.3c-9.6-5-21.2-14.8-24.5-26.3
					c-4.5-15.8-0.2-37.6,3.2-50.4c3.9-14.8,10.4-29.8,15.9-40.4c11.5-21.9,29-45.4,57.7-54.9C488.5,248,489,248.2,489.4,248.2z"/>
			</g>
		</g>
	</g>
	<g id="UPkIXj_1_">
		<g>
			<g>
				<path class="st0" d="M602.7,270.1c1.4,1.6,3.8,1.9,5.5,0.6c8.1-6.1,22-13.4,35.5-13.1c11.6,0.3,14.4,10.1,12.8,21.7
					c-0.3,2.4-2.8,4-5.2,3.3c-6.6-2.1-14.2-5.3-22.2-3.7c-4.3,0.8-7.7,2.9-11,4.8c-2,1.2-2.8,3.7-1.5,5.7
					c15.3,24.5,17.3,65.8,3.2,93.8c-2.8,5.5-6.1,11.1-10.2,16.8c-3.4,4.8-7,10.4-12.5,12.9c-3.1,1.5-6.3-1.6-5.4-4.9
					c5.4-18.2-5.4-41.4-12.4-57.2c-12.7-28.8-27.8-53.5-47.1-77.2c-8.1-10.1-19.5-27.2-32.8-29.3h-0.1c-4.1-0.6-4.9-6.1-1.1-7.7
					c5.9-2.4,14-3,20.2-3.4C555.7,230.6,585.8,249.9,602.7,270.1z"/>
			</g>
		</g>
	</g>
</g>
<g id="map_location_pin_map-marker_glyph">
	<g>
		<path class="st0" d="M700.9-82.5c-52.8,0-78.9,36.8-78.9,82.2S700.9,149,700.9,149S779.8,45.1,779.8-0.3S753.8-82.5,700.9-82.5z
			 M700.9,25.7c-21.2,0-38.3-17.1-38.3-38.3s17.1-38.3,38.3-38.3c21.2,0,38.3,17.1,38.3,38.3C739.2,8.5,722.1,25.7,700.9,25.7z"/>
	</g>
</g>
<g id="Camera_sub">
</g>
<g id="Layer_1_1_">
	<g>
		<path class="st1" d="M700.8,333.4c0,95.3-77.3,172.6-172.6,172.6s-172.6-77.3-172.6-172.6s77.3-172.6,172.6-172.6
			S700.8,238.1,700.8,333.4z M700.8-148c-95.3,0-172.6,77.2-172.6,172.6s77.3,172.6,172.6,172.6s172.6-77.3,172.6-172.6
			S796.2-148,700.8-148z M355.6-148C260.3-148,183-70.8,183,24.6s77.3,172.6,172.6,172.6s172.6-77.3,172.6-172.6
			S450.9-148,355.6-148z"/>
		<polygon class="st0" points="471.1,161.7 528.2,72.3 582.4,157.1 		"/>
	</g>
</g>
<rect x="248.6" y="-50.6" class="st0" width="35.9" height="7.6"/>
<g>
	<g>
		<path class="st0" d="M225.2-43V88.7H486V-43H225.2L225.2-43z M464.9,28.9h-75.5c2.4,4.9,3.7,10.3,3.7,16.2
			c0,20.8-16.8,37.5-37.5,37.5s-37.5-16.8-37.5-37.5c0-5.8,1.3-11.2,3.7-16.2h-73.1v-52.4H465L464.9,28.9L464.9,28.9z"/>
	</g>
</g>
<circle class="st2" cx="355.7" cy="49" r="42.3"/>
</svg>
