<?xml version="1.0" encoding="UTF-8" standalone="no"?>
<svg width="1161px" height="369px" viewBox="0 0 1161 369" version="1.1" xmlns="http://www.w3.org/2000/svg" xmlns:xlink="http://www.w3.org/1999/xlink" xmlns:sketch="http://www.bohemiancoding.com/sketch/ns">
    <!-- Generator: Sketch 3.3.2 (12043) - http://www.bohemiancoding.com/sketch -->
    <title>history_img</title>
    <desc>Created with Sketch.</desc>
    <defs></defs>
    <g id="Page-1" stroke="none" stroke-width="1" fill="none" fill-rule="evenodd" sketch:type="MSPage">
        <g id="history_img" sketch:type="MSLayerGroup" transform="translate(0.000000, -0.258553)" fill="#000000">
            <path d="M513.555814,120.223256 L519.888372,120.223256 C519.888372,115.247674 519.436047,112.533721 519.436047,107.55814 L513.103488,107.55814 C513.103488,112.533721 513.103488,115.247674 513.555814,120.223256 L513.555814,120.223256 Z M550.194186,103.939535 L556.526744,103.939535 C556.526744,98.9639535 556.526744,96.25 556.074419,91.2744186 L549.74186,91.2744186 C550.194186,96.7023256 550.194186,98.9639535 550.194186,103.939535 L550.194186,103.939535 Z M382.833721,89.4651163 C390.07093,89.4651163 393.689535,89.4651163 400.926744,89.0127907 C399.569767,76.3476744 397.760465,63.6825581 396.403488,50.5651163 C389.166279,50.5651163 385.547674,50.5651163 377.85814,51.0174419 C379.667442,64.1348837 381.024419,76.8 382.833721,89.4651163 L382.833721,89.4651163 Z M257.087209,144.648837 C263.419767,143.29186 266.586047,142.387209 272.918605,141.030233 C270.204651,129.269767 267.943023,117.056977 265.22907,105.296512 C258.896512,106.653488 255.277907,107.55814 248.945349,108.915116 C251.659302,120.675581 254.373256,132.436047 257.087209,144.648837 L257.087209,144.648837 Z M54.8976744,234.209302 C58.9686047,233.304651 61.2302326,232.4 65.7534884,231.495349 C62.5872093,222.901163 60.777907,218.377907 57.6116279,209.783721 C53.5406977,211.140698 51.2790698,211.593023 46.755814,212.497674 C49.922093,221.09186 51.2790698,225.615116 54.8976744,234.209302 L54.8976744,234.209302 Z M208.688372,104.844186 C214.568605,103.487209 217.282558,102.582558 223.162791,101.225581 C220.448837,90.822093 218.187209,80.4186047 215.473256,70.0151163 C209.593023,71.372093 206.87907,72.2767442 200.998837,73.6337209 C203.260465,84.0372093 205.974419,94.4406977 208.688372,104.844186 L208.688372,104.844186 Z M146.267442,171.336047 C150.338372,170.431395 152.6,169.97907 156.67093,169.074419 C154.409302,160.932558 153.052326,156.861628 150.338372,148.719767 C146.267442,149.624419 144.005814,150.076744 139.934884,150.981395 C142.196512,158.67093 143.553488,163.194186 146.267442,171.336047 L146.267442,171.336047 Z M1005.23372,107.55814 C1007.49535,108.010465 1008.4,108.462791 1010.66163,108.915116 C1012.0186,103.487209 1013.82791,98.5116279 1015.18488,93.0837209 C1012.92326,92.6313953 1012.0186,92.1790698 1009.75698,91.7267442 C1007.94767,97.1546512 1006.5907,102.582558 1005.23372,107.55814 L1005.23372,107.55814 Z M1160.3814,368.55 C1157.66744,368.097674 1154.50116,367.645349 1150.88256,366.740698 C1144.55,365.836047 1137.31279,364.47907 1129.17093,363.122093 C1112.88721,360.40814 1092.98488,357.24186 1070.3686,353.623256 C1047.75233,350.004651 1021.96977,346.386047 993.925581,342.315116 C937.837209,334.625581 872.25,326.483721 801.687209,320.603488 C766.405814,317.437209 730.219767,315.175581 693.12907,313.366279 C684.082558,312.913953 674.583721,312.461628 665.084884,312.009302 C655.586047,311.556977 646.539535,311.556977 637.040698,311.104651 C627.54186,311.104651 618.495349,310.652326 608.996512,310.652326 L580.5,310.652326 L552.455814,310.652326 C542.956977,310.652326 533.910465,311.104651 524.411628,311.104651 C514.912791,311.556977 505.866279,311.556977 496.367442,312.009302 C486.868605,312.461628 477.822093,312.913953 468.323256,313.366279 C431.232558,315.175581 395.046512,317.437209 359.765116,320.603488 C289.202326,326.483721 223.615116,334.625581 167.526744,342.315116 C139.482558,346.386047 113.7,350.004651 91.0837209,353.623256 C68.4674419,357.24186 48.5651163,360.40814 32.2813953,363.122093 C24.1395349,364.47907 16.9023256,365.836047 10.5697674,366.740698 C6.95116279,367.193023 3.78488372,368.097674 1.07093023,368.55 L0.16627907,365.836047 C0.618604651,365.836047 0.618604651,365.836047 1.07093023,365.383721 C3.78488372,364.47907 6.49883721,363.574419 9.66511628,362.669767 C12.8313953,361.765116 15.9976744,360.860465 19.6162791,359.503488 C23.2348837,358.598837 26.8534884,357.24186 30.9244186,356.337209 C45.8511628,352.266279 63.944186,346.838372 84.7511628,341.862791 C58.0639535,272.656977 57.1593023,270.395349 28.6627907,197.118605 C51.7313953,190.786047 75.2523256,184.905814 98.3209302,179.477907 C96.5116279,174.05 94.7023256,168.169767 92.8930233,162.74186 C94.7023256,157.313953 96.9639535,151.433721 99.2255814,146.005814 C118.223256,141.482558 137.22093,137.411628 156.67093,133.793023 C160.74186,148.267442 164.812791,162.289535 168.883721,176.763953 C182.453488,174.05 196.023256,171.336047 209.593023,169.074419 C201.451163,136.959302 193.309302,104.39186 184.715116,72.2767442 C208.688372,65.944186 232.661628,60.0639535 257.087209,54.6360465 C254.825581,44.6848837 253.016279,34.2813953 250.754651,24.3302326 C269.752326,19.3546512 288.75,14.3790698 307.747674,9.40348837 L341.219767,9.40348837 C342.576744,20.2593023 344.386047,30.6627907 345.743023,41.5186047 C368.359302,41.0662791 391.427907,40.6139535 414.044186,40.6139535 C414.948837,48.755814 415.853488,57.35 416.75814,65.4918605 L460.633721,65.4918605 C461.086047,69.1104651 461.086047,70.9197674 461.086047,74.0860465 C466.513953,73.6337209 468.775581,73.6337209 474.203488,73.6337209 C475.10814,90.3697674 476.465116,107.55814 477.822093,124.294186 C484.606977,123.84186 491.39186,123.84186 498.176744,123.389535 C498.176744,119.318605 497.724419,117.509302 497.724419,113.438372 C502.7,113.438372 504.961628,112.986047 509.937209,112.986047 C509.484884,104.39186 509.032558,95.7976744 508.580233,86.7511628 C514.912791,82.227907 521.245349,77.7046512 527.577907,73.1813953 C532.101163,73.1813953 534.362791,73.1813953 539.338372,72.7290698 C545.218605,76.8 551.551163,80.4186047 557.431395,84.4895349 C557.431395,92.6313953 557.883721,100.773256 557.883721,108.915116 L569.19186,108.915116 C569.19186,122.937209 569.19186,137.411628 569.644186,151.433721 L598.593023,151.433721 C598.593023,141.030233 599.045349,130.626744 599.045349,120.223256 L614.424419,120.223256 C615.32907,81.7755814 616.233721,43.327907 617.138372,4.42790698 C633.422093,3.07093023 649.705814,1.71395349 665.537209,0.809302326 C715.293023,4.88023256 765.048837,10.7604651 814.352326,17.9976744 C808.019767,61.8732558 801.687209,105.748837 795.354651,149.624419 C818.423256,151.886047 841.039535,154.6 864.10814,157.766279 C869.988372,127.912791 875.868605,98.5116279 881.296512,68.6581395 C887.62907,69.1104651 893.509302,69.5627907 899.84186,69.5627907 C901.198837,61.8732558 903.00814,54.1837209 904.365116,46.494186 C915.673256,48.3034884 927.433721,50.1127907 938.74186,51.922093 C936.932558,59.1593023 935.575581,66.3965116 933.766279,73.1813953 C948.693023,74.9906977 963.167442,76.8 978.094186,79.0616279 C993.02093,82.6802326 1007.94767,86.7511628 1022.87442,90.822093 C1018.80349,105.296512 1014.73256,119.77093 1010.2093,133.793023 C1018.80349,135.602326 1027.39767,137.411628 1036.44419,139.22093 C1035.08721,143.744186 1033.73023,147.815116 1032.37326,152.338372 C1037.34884,153.243023 1040.06279,154.147674 1045.03837,155.052326 C1044.13372,157.313953 1044.13372,158.67093 1043.22907,160.932558 C1051.82326,162.74186 1059.96512,164.551163 1068.10698,166.812791 C1074.43953,148.719767 1080.31977,130.174419 1086.65233,112.081395 C1110.17326,117.509302 1133.69419,123.84186 1156.76279,130.174419 C1119.67209,225.615116 1110.62558,249.136047 1074.89186,340.95814 C1096.15116,346.386047 1114.69651,351.361628 1130.07558,355.884884 C1134.14651,357.24186 1137.76512,358.146512 1141.38372,359.051163 C1145.00233,359.955814 1148.1686,361.312791 1151.33488,362.217442 C1154.50116,363.122093 1157.21512,364.026744 1159.92907,364.931395 C1160.3814,364.931395 1160.3814,364.931395 1160.83372,365.383721 L1160.3814,368.55 L1160.3814,368.55 Z M682.725581,69.5627907 C683.630233,56.4453488 684.534884,43.7802326 685.439535,30.6627907 C677.297674,30.2104651 673.226744,30.2104651 665.084884,29.7581395 C664.180233,42.8755814 663.727907,55.5406977 662.823256,68.6581395 C670.512791,68.6581395 674.583721,69.1104651 682.725581,69.5627907 L682.725581,69.5627907 Z M1090.72326,143.29186 C1088.0093,150.52907 1085.74767,158.218605 1083.03372,165.455814 C1087.55698,166.360465 1089.8186,167.265116 1094.34186,168.169767 C1097.05581,160.932558 1099.76977,153.243023 1102.0314,146.005814 C1097.50814,145.101163 1095.24651,144.648837 1090.72326,143.29186 L1090.72326,143.29186 Z M771.381395,94.8930233 C772.738372,84.4895349 774.095349,73.6337209 775.452326,62.777907 C769.119767,62.3255814 765.501163,61.8732558 759.168605,61.4209302 C757.811628,71.8244186 756.906977,82.6802326 755.55,93.5360465 C761.430233,93.9883721 764.596512,93.9883721 771.381395,94.8930233 L771.381395,94.8930233 Z M889.438372,118.413953 C891.247674,109.819767 893.056977,101.225581 894.866279,92.1790698 C890.795349,92.1790698 888.986047,91.7267442 884.915116,91.7267442 C883.105814,100.32093 881.296512,108.915116 879.939535,117.961628 C883.55814,117.961628 885.819767,117.961628 889.438372,118.413953 L889.438372,118.413953 Z M975.832558,125.651163 C978.546512,115.247674 981.260465,105.296512 983.974419,94.8930233 C979.451163,93.9883721 977.189535,93.0837209 973.118605,92.1790698 C970.404651,102.582558 967.690698,112.533721 964.976744,122.937209 C969.5,123.84186 971.309302,124.294186 975.832558,125.651163 L975.832558,125.651163 Z M780.880233,31.1151163 C787.665116,31.5674419 790.831395,32.0197674 797.616279,32.472093 C796.259302,42.8755814 794.902326,53.7313953 793.093023,64.1348837 C786.30814,63.6825581 783.14186,63.2302326 776.356977,62.777907 C778.166279,51.922093 779.523256,41.5186047 780.880233,31.1151163 L780.880233,31.1151163 Z M1133.24186,132.888372 C1130.52791,140.125581 1128.26628,147.815116 1125.55233,155.052326 C1130.07558,155.956977 1132.33721,156.861628 1136.86047,157.766279 C1139.57442,150.52907 1142.28837,142.839535 1144.55,135.602326 C1140.02674,134.245349 1137.76512,133.793023 1133.24186,132.888372 L1133.24186,132.888372 Z M649.253488,120.675581 C650.15814,107.55814 651.062791,94.8930233 651.967442,81.7755814 C643.825581,81.3232558 639.754651,81.3232558 631.612791,80.8709302 C630.70814,93.9883721 630.255814,106.653488 629.351163,119.77093 C637.040698,119.77093 641.111628,120.223256 649.253488,120.675581 L649.253488,120.675581 Z" id="XMLID_102_" sketch:type="MSShapeGroup"></path>
        </g>
    </g>
</svg>