<?xml version="1.0" encoding="utf-8"?>
<!-- Generator: Adobe Illustrator 19.0.0, SVG Export Plug-In . SVG Version: 6.00 Build 0)  -->
<svg version="1.1" id="Layer_1" xmlns="http://www.w3.org/2000/svg" xmlns:xlink="http://www.w3.org/1999/xlink" x="0px" y="0px"
	 viewBox="0 0 150 118.1" style="enable-background:new 0 0 150 118.1;" xml:space="preserve">
<style type="text/css">
	.st0{fill:#1D8893;}
</style>
<g id="XMLID_480_">
	<path id="XMLID_481_" class="st0" d="M6,101.1h6v5H6V101.1z M6,89.1h6v6H6V89.1z M6,78.1h6v5H6V78.1z M6,66.1h6v6H6V66.1z
		 M17,101.1h6v5h-6V101.1z M17,89.1h6v6h-6V89.1z M17,78.1h6v5h-6V78.1z M17,66.1h6v6h-6V66.1z M0,118.1h29v-63H0V118.1z"/>
	<path id="XMLID_491_" class="st0" d="M144,84.1h-6v-6h6V84.1z M144,95.1h-6v-6h6V95.1z M144,106.1h-6v-5h6V106.1z M132,84.1h-5v-6
		h5V84.1z M132,95.1h-5v-6h5V95.1z M132,106.1h-5v-5h5V106.1z M121,66.1v52h29v-52H121z"/>
	<path id="XMLID_499_" class="st0" d="M111,20.1v6h-6v-6H111z M111,37.1h-6v-5h6V37.1z M111,49.1h-6v-6h6V49.1z M111,60.1h-6v-6h6
		V60.1z M111,72.1h-6v-6h6V72.1z M111,83.1h-6v-5h6V83.1z M111,95.1h-6v-6h6V95.1z M111,106.1h-6v-5h6V106.1z M100,26.1h-6v-6h6
		V26.1z M100,37.1h-6v-5h6V37.1z M100,49.1h-6v-6h6V49.1z M100,60.1h-6v-6h6V60.1z M100,72.1h-6v-6h6V72.1z M100,83.1h-6v-5h6V83.1z
		 M100,95.1h-6v-6h6V95.1z M100,106.1h-6v-5h6V106.1z M110.8,3.1h-13L88,0v118.1h29V8.8l-6-1.9V3.1H110.8z"/>
	<path id="XMLID_517_" class="st0" d="M73,84.1h-6v-6h6V84.1z M73,95.1h-6v-6h6V95.1z M73,106.1h-6v-5h6V106.1z M61,61.1h6v5h-6
		V61.1z M61,84.1h-5v-6h5V84.1z M61,95.1h-5v-6h5V95.1z M61,106.1h-5v-5h5V106.1z M50,61.1h6v5h-6V61.1z M50,84.1h-6v-6h6V84.1z
		 M50,95.1h-6v-6h6V95.1z M50,106.1h-6v-5h6V106.1z M50,49.1h6v6h-6V49.1z M61,49.1h6v6h-6V49.1z M73,66.1V49.4l-5.9-11.3H61v-7h-5
		v7h-6.1L44,49.4v16.7h-5.5L33,72.3v45.8h51V72.3l-5.5-6.2H73z"/>
	<path id="XMLID_532_" class="st0" d="M32,36.1h-6v-6h6V36.1z M32,47.1h-6v-5h6V47.1z M37,30.1h6v6h-6V30.1z M40,61.1v-2h-3v-6h3
		v-4.9l0.5-1.1H37v-5h6.4l4.9-10l0.7-1.7v-12l-29,6.9v25.7h13v15.2l5-5.2H40z"/>
</g>
</svg>
