<?xml version="1.0" encoding="utf-8"?>
<!-- Generator: Adobe Illustrator 19.0.0, SVG Export Plug-In . SVG Version: 6.00 Build 0)  -->
<svg version="1.1" id="Layer_1" xmlns="http://www.w3.org/2000/svg" xmlns:xlink="http://www.w3.org/1999/xlink" x="0px" y="0px"
	 viewBox="0 0 260.8 144.5" style="enable-background:new 0 0 260.8 144.5;" xml:space="preserve">
<style type="text/css">
	.st0{fill:#242323;}
</style>
<path id="XMLID_102_" class="st0" d="M115.2,58.8c0.6,0,0.8,0,1.4,0c0-1.1-0.1-1.7-0.1-2.8c-0.6,0-0.8,0-1.4,0
	C115.1,57.1,115.1,57.7,115.2,58.8z M123.3,55.2c0.6,0,0.8,0,1.4,0c0-1.1,0-1.7-0.1-2.8c-0.6,0-0.8,0-1.4,0
	C123.3,53.6,123.3,54.1,123.3,55.2z M86.3,52c1.6,0,2.4,0,4-0.1c-0.3-2.8-0.7-5.6-1-8.5c-1.6,0-2.4,0-4.1,0.1
	C85.6,46.4,85.9,49.2,86.3,52z M58.5,64.2c1.4-0.3,2.1-0.5,3.5-0.8c-0.6-2.6-1.1-5.3-1.7-7.9c-1.4,0.3-2.2,0.5-3.6,0.8
	C57.3,58.9,57.9,61.5,58.5,64.2z M13.8,84c0.9-0.2,1.4-0.4,2.4-0.6c-0.7-1.9-1.1-2.9-1.8-4.8C13.5,78.9,13,79,12,79.2
	C12.7,81.1,13,82.1,13.8,84z M47.8,55.4c1.3-0.3,1.9-0.5,3.2-0.8c-0.6-2.3-1.1-4.6-1.7-6.9c-1.3,0.3-1.9,0.5-3.2,0.8
	C46.6,50.8,47.2,53.1,47.8,55.4z M34,70.1c0.9-0.2,1.4-0.3,2.3-0.5c-0.5-1.8-0.8-2.7-1.4-4.5c-0.9,0.2-1.4,0.3-2.3,0.5
	C33.1,67.3,33.4,68.3,34,70.1z M223.9,56c0.5,0.1,0.7,0.2,1.2,0.3c0.3-1.2,0.7-2.3,1-3.5c-0.5-0.1-0.7-0.2-1.2-0.3
	C224.5,53.7,224.2,54.9,223.9,56z M258.2,113.7c-0.6-0.1-1.3-0.2-2.1-0.4c-1.4-0.2-3-0.5-4.8-0.8c-3.6-0.6-8-1.3-13-2.1
	c-5-0.8-10.7-1.6-16.9-2.5c-12.4-1.7-26.9-3.5-42.5-4.8c-7.8-0.7-15.8-1.2-24-1.6c-2-0.1-4.1-0.2-6.2-0.3c-2.1-0.1-4.1-0.1-6.2-0.2
	c-2.1,0-4.1-0.1-6.2-0.1c-2.1,0-4.2,0-6.3,0c-2.1,0-4.1,0-6.2,0c-2.1,0-4.1,0.1-6.2,0.1c-2.1,0.1-4.1,0.1-6.2,0.2
	c-2.1,0.1-4.1,0.2-6.2,0.3c-8.2,0.4-16.2,0.9-24,1.6c-15.6,1.3-30.1,3.1-42.5,4.8c-6.2,0.9-11.9,1.7-16.9,2.5c-5,0.8-9.4,1.5-13,2.1
	c-1.8,0.3-3.4,0.6-4.8,0.8c-0.8,0.1-1.5,0.3-2.1,0.4l-0.2-0.6c0.1,0,0.1,0,0.2-0.1c0.6-0.2,1.2-0.4,1.9-0.6c0.7-0.2,1.4-0.4,2.2-0.7
	c0.8-0.2,1.6-0.5,2.5-0.7c3.3-0.9,7.3-2.1,11.9-3.2c-5.9-15.3-6.1-15.8-12.4-32c5.1-1.4,10.3-2.7,15.4-3.9c-0.4-1.2-0.8-2.5-1.2-3.7
	c0.4-1.2,0.9-2.5,1.4-3.7c4.2-1,8.4-1.9,12.7-2.7c0.9,3.2,1.8,6.3,2.7,9.5c3-0.6,6-1.2,9-1.7c-1.8-7.1-3.6-14.3-5.5-21.4
	c5.3-1.4,10.6-2.7,16-3.9c-0.5-2.2-0.9-4.5-1.4-6.7c4.2-1.1,8.4-2.2,12.6-3.3c2.5,0,5,0,7.4,0c0.3,2.4,0.7,4.7,1,7.1
	c5-0.1,10.1-0.2,15.1-0.2c0.2,1.8,0.4,3.7,0.6,5.5c3.2,0,6.5,0,9.7,0c0.1,0.8,0.1,1.2,0.1,1.9c1.2-0.1,1.7-0.1,2.9-0.1
	c0.2,3.7,0.5,7.5,0.8,11.2c1.5-0.1,3-0.1,4.5-0.2c0-0.9-0.1-1.3-0.1-2.2c1.1,0,1.6-0.1,2.7-0.1c-0.1-1.9-0.2-3.8-0.3-5.8
	c1.4-1,2.8-2,4.2-3c1,0,1.5,0,2.6-0.1c1.3,0.9,2.7,1.7,4,2.6c0,1.8,0.1,3.6,0.1,5.4c1,0,1.5,0,2.5,0c0,3.1,0,6.3,0.1,9.4
	c2.2,0,4.3,0,6.4,0c0-2.3,0.1-4.6,0.1-6.9c1.4,0,2,0,3.4,0c0.2-8.5,0.4-17,0.6-25.6c3.6-0.3,7.2-0.6,10.7-0.8
	c11,0.9,22,2.2,32.9,3.8c-1.4,9.7-2.8,19.4-4.2,29.1c5.1,0.5,10.1,1.1,15.2,1.8c1.3-6.6,2.6-13.1,3.8-19.7c1.4,0.1,2.7,0.2,4.1,0.2
	c0.3-1.7,0.7-3.4,1-5.1c2.5,0.4,5.1,0.8,7.6,1.2c-0.4,1.6-0.7,3.2-1.1,4.7c3.3,0.4,6.5,0.8,9.8,1.3c3.3,0.8,6.6,1.7,9.9,2.6
	c-0.9,3.2-1.8,6.4-2.8,9.5c1.9,0.4,3.8,0.8,5.8,1.2c-0.3,1-0.6,1.9-0.9,2.9c1.1,0.2,1.7,0.4,2.8,0.6c-0.2,0.5-0.2,0.8-0.4,1.3
	c1.9,0.4,3.7,0.8,5.5,1.3c1.4-4,2.7-8.1,4.1-12.1c5.2,1.2,10.4,2.6,15.5,4c-8.2,21.1-10.2,26.3-18.1,46.6c4.7,1.2,8.8,2.3,12.2,3.3
	c0.9,0.3,1.7,0.5,2.5,0.7c0.8,0.2,1.5,0.5,2.2,0.7c0.7,0.2,1.3,0.4,1.9,0.6c0.1,0,0.1,0,0.2,0.1L258.2,113.7z M152.6,47.6
	c0.2-2.9,0.4-5.7,0.6-8.6c-1.8-0.1-2.7-0.1-4.5-0.2c-0.2,2.9-0.3,5.7-0.5,8.6C149.9,47.4,150.8,47.5,152.6,47.6z M242.8,63.9
	c-0.6,1.6-1.1,3.3-1.7,4.9c1,0.2,1.5,0.4,2.5,0.6c0.6-1.6,1.2-3.3,1.7-4.9C244.3,64.3,243.8,64.2,242.8,63.9z M172.2,53.2
	c0.3-2.3,0.6-4.7,0.9-7.1c-1.4-0.1-2.2-0.2-3.6-0.3c-0.3,2.3-0.5,4.7-0.8,7.1C170,53,170.7,53,172.2,53.2z M198.3,58.4
	c0.4-1.9,0.8-3.8,1.2-5.8c-0.9,0-1.3-0.1-2.2-0.1c-0.4,1.9-0.8,3.8-1.1,5.8C197,58.3,197.5,58.3,198.3,58.4z M217.4,60
	c0.6-2.3,1.2-4.5,1.8-6.8c-1-0.2-1.5-0.4-2.4-0.6c-0.6,2.3-1.2,4.5-1.8,6.8C216,59.6,216.4,59.7,217.4,60z M174.3,39.1
	c1.5,0.1,2.2,0.2,3.7,0.3c-0.3,2.3-0.6,4.7-1,7c-1.5-0.1-2.2-0.2-3.7-0.3C173.7,43.7,174,41.4,174.3,39.1z M252.2,61.6
	c-0.6,1.6-1.1,3.3-1.7,4.9c1,0.2,1.5,0.4,2.5,0.6c0.6-1.6,1.2-3.3,1.7-4.9C253.7,61.9,253.2,61.8,252.2,61.6z M145.2,58.9
	c0.2-2.9,0.4-5.7,0.6-8.6c-1.8-0.1-2.7-0.1-4.5-0.2c-0.2,2.9-0.3,5.7-0.5,8.6C142.5,58.7,143.4,58.8,145.2,58.9z"/>
</svg>
