<?xml version="1.0" encoding="utf-8"?>
<!-- Generator: Adobe Illustrator 19.0.0, SVG Export Plug-In . SVG Version: 6.00 Build 0)  -->
<svg version="1.1" id="Layer_1" xmlns="http://www.w3.org/2000/svg" xmlns:xlink="http://www.w3.org/1999/xlink" x="0px" y="0px"
	 viewBox="0 0 238.4 107.8" style="enable-background:new 0 0 238.4 107.8;" xml:space="preserve">
<style type="text/css">
	.st0{fill:none;stroke:#1D8893;stroke-miterlimit:10;}
	.st1{fill:#F3F3F3;stroke:#F3F3F3;stroke-miterlimit:10;}
	.st2{fill:#F3F3F3;stroke:#1D8893;stroke-width:3;stroke-miterlimit:10;}
	.st3{fill:#1D8893;stroke:#1D8893;stroke-miterlimit:10;}
	.st4{fill:none;stroke:#1D8893;stroke-width:3;stroke-miterlimit:10;}
	.st5{fill:#F3F3F3;stroke:#1D8893;stroke-width:2;stroke-miterlimit:10;}
	.st6{fill:#1D8893;}
	.st7{fill:#F3F3F3;stroke:#1D8893;stroke-width:2;stroke-linecap:round;stroke-linejoin:round;stroke-miterlimit:10;}
	.st8{fill:#F3F3F3;}
</style>
<rect id="XMLID_432_" x="55.6" y="73.2" class="st0" width="45" height="29"/>
<circle id="XMLID_433_" class="st1" cx="77.3" cy="85.5" r="3.6"/>
<path id="XMLID_434_" class="st2" d="M38.9,37.8c-1.8,0-3.2-1.5-3.2-3.2s1.5-3.2,3.2-3.2s3.2,1.5,3.2,3.2S40.7,37.8,38.9,37.8z
	 M10.9,43.1c-1.8,0-3.2-1.5-3.2-3.2s1.5-3.2,3.2-3.2s3.2,1.5,3.2,3.2S12.7,43.1,10.9,43.1z M46.8,2.2c-0.7-0.6-1.5-0.8-2.4-0.6
	L16.2,6.9c-1.4,0.3-2.6,1.5-2.6,2.9v21.4c-1-0.4-1.9-0.6-3-0.6c-5.1,0-9.1,4.1-9.1,9.2s4,9.2,9.1,9.2c5.1,0,9.1-4.1,9.1-9.2V12.4
	l22-4.2v17.7c-1-0.4-1.9-0.6-3-0.6c-5.1,0-9.1,4.1-9.1,9.2s4,9.2,9.1,9.2c5.1,0,9.1-4.1,9.1-9.2v-30C47.6,3.6,47.5,2.8,46.8,2.2z"/>
<path id="XMLID_438_" class="st3" d="M116.4,3.6c-9.1,0-16.5,7.4-16.5,16.5c0,8,13,25.8,16.5,30.5c3.5-4.7,16.5-22.6,16.5-30.5
	C132.9,11,125.5,3.6,116.4,3.6z M116.4,53.6c-0.3,0-0.7-0.1-0.9-0.4c-0.8-1-17.8-23.1-17.8-33c0-10.3,8.4-18.7,18.7-18.7
	S135,9.8,135,20.1c0,9.9-17,32-17.8,33C117,53.5,116.7,53.6,116.4,53.6z"/>
<path id="XMLID_441_" class="st3" d="M116.4,12.4c-4.2,0-7.7,3.5-7.7,7.7s3.5,7.7,7.7,7.7s7.7-3.5,7.7-7.7S120.6,12.4,116.4,12.4z
	 M116.4,30c-5.4,0-9.9-4.4-9.9-9.9s4.4-9.9,9.9-9.9c5.4,0,9.9,4.4,9.9,9.9S121.8,30,116.4,30z"/>
<g id="XMLID_444_">
	<path id="XMLID_445_" class="st4" d="M152.7,80c-4.5-1.9-8.4-4.3-11.4-7c-0.4,0.7-0.8,1.5-1.1,2.3c-3.7,8.7-1.9,17.9,4,21.4
		c0,0,0.2,1.1,0.8,1.4c0.7,0.3,1.6-0.4,1.6-0.4c6.6,1.8,14.5-3.3,18.1-12c0.3-0.8,0.6-1.6,0.9-2.4C161.6,83,157.2,81.9,152.7,80z"/>
	<path id="XMLID_446_" class="st4" d="M169.6,78.5C169.6,78.6,169.6,78.6,169.6,78.5C170.7,72.9,169.8,77.8,169.6,78.5
		c1.2-6.4-2.7-12.8-8.5-15.8c0.4-1.4,1.7-5.1,2.4-6.9c0.3-0.8,0.6-1.7,0.2-2.5c-0.3-0.8-1.1-1.1-1.9-1.1c-2.4-0.1-2,1.6-1.6,3.9
		c0.3,1.8-0.7,4.7-1.1,5.8c-6.1-2.1-13.4-0.4-17.2,4.8c-0.6,0.8-1.1,1.7-1.5,2.6c-0.2,0.5-0.1,1.1,0.3,1.5c3,3,7.3,5.8,12.4,8
		c5.1,2.2,10.1,3.3,14.3,3.4c0.6,0,1-0.3,1.3-0.8C169.2,80.5,169.5,79.5,169.6,78.5z"/>
</g>
<path id="XMLID_447_" class="st5" d="M203.3,16.7h-12.6c-0.9,0-1.6,0.9-1.6,1.8v6.2c0,0.9,0.7,2,1.6,2h12.6c0.9,0,1.8-1.1,1.8-2
	v-6.2C205.1,17.6,204.2,16.7,203.3,16.7z"/>
<g id="XMLID_448_">
	<path id="XMLID_72_" class="st6" d="M201.6,45c-2,0-3.9-1.3-4.5-3.2l-0.2,0c-0.1,0-0.4,0-0.8,0c-3,0-13.5-0.6-20.9-7.7l-0.4-0.4
		l0.1-0.6c0-0.3,0.6-6.6,5.3-12.8c2.8-3.7,6.4-6.7,10.7-8.8c5.4-2.6,11.9-3.9,19.5-3.9l0.3,0c1.3,0,5.9,0.2,10.3,2.8
		c2.5,1.5,4.6,3.6,6,6.2c1.7,3.1,2.6,6.9,2.6,11.2h3.2v7.6h1.3V34l2.4,0v1.4h1.7v2.4h-1.7l0,7.2l-2.4,0l0-7.2h-6.9
		c-1.3,2.2-3.1,3.6-5.4,3.9l-0.1,0h-15.5C205.5,43.7,203.7,45,201.6,45z M201.6,37.8c-1.3,0-2.4,1.1-2.4,2.4s1.1,2.4,2.4,2.4
		s2.4-1.1,2.4-2.4S202.9,37.8,201.6,37.8z M177.3,32.7c6.4,5.9,15.4,6.6,18.4,6.6c0.2-0.9,0.6-2.2,1.6-3.2c1.1-1.1,2.6-1.7,4.5-1.7
		c1.9,0,3.4,0.6,4.5,1.7c1,1,1.4,2.3,1.6,3.2h1.6V17.8c0-0.2,0.1-1.3,0.8-2.5c0.7-1.1,2.1-2.5,4.8-2.5c2.7,0,4.1,1.4,4.7,2.5
		c0.7,1.2,0.7,2.3,0.7,2.5v21.5h0.9c5.6-1,5.6-11.2,5.6-11.4c0-7.4-2.5-12.6-7.4-15.5c-3.8-2.3-7.9-2.5-9.1-2.5l-0.3,0
		c-7.1,0-13.3,1.2-18.3,3.7c-4,1.9-7.3,4.6-9.8,8C178.6,26.4,177.6,31.2,177.3,32.7z M218.1,39.3V17.8c0-0.2-0.1-0.8-0.4-1.3
		c-0.5-0.8-1.4-1.2-2.6-1.2c-2.8,0-3.1,2.2-3.1,2.6l0,21.4H218.1z M230.3,35.4v-5.1h-0.9c-0.1,1.4-0.5,3.3-1.1,5.1H230.3z"/>
	<path id="XMLID_61_" class="st6" d="M210.6,7.8c1.3,0,5.9,0.2,10.2,2.8c2.5,1.5,4.5,3.6,5.9,6.1c1.7,3.1,2.6,6.9,2.6,11.3
		c0,0,0,0,0,0.1h3.2v7.6h1.8v-1.4l1.9,0v1.4h1.7v1.9h-1.7l0,7.2l-1.9,0l0-7.2H227c-1.1,1.9-2.8,3.5-5.3,3.9l-0.1,0H206
		c-0.6,1.9-2.3,3.2-4.4,3.2c-2.1,0-3.8-1.4-4.4-3.2l-0.4,0c0,0-0.3,0-0.8,0c-3,0-13.4-0.6-20.7-7.6l-0.3-0.3l0-0.5
		c0-0.3,0.6-6.5,5.3-12.7c2.7-3.7,6.3-6.6,10.6-8.7c5.4-2.6,11.9-3.9,19.3-3.9C210.4,7.8,210.5,7.8,210.6,7.8 M195.9,39.6
		c0.1-0.9,0.5-2.2,1.6-3.3c1.1-1.1,2.5-1.6,4.3-1.6c1.8,0,3.3,0.5,4.3,1.6c1,1.1,1.4,2.4,1.6,3.3h2V17.8c0-0.1,0.1-1.2,0.7-2.3
		c0.6-1.1,2-2.4,4.6-2.4c2.6,0,3.9,1.3,4.5,2.4c0.6,1.1,0.7,2.2,0.7,2.3v21.8h1.2c5.8-1.1,5.9-11.5,5.9-11.6
		c0-7.4-2.5-12.7-7.6-15.8c-3.9-2.3-8-2.5-9.2-2.5c-0.1,0-0.2,0-0.2,0h0c-7.2,0-13.4,1.2-18.5,3.7c-4,1.9-7.4,4.7-9.9,8.1
		c-3.7,4.9-4.7,9.9-4.9,11.4C183.7,39,193,39.6,195.9,39.6 M211.7,39.6h6.7V17.8c0-0.1-0.1-0.8-0.5-1.5c-0.5-0.9-1.5-1.3-2.8-1.3
		c-3.1,0-3.4,2.6-3.4,2.8V39.6 M227.9,35.6h2.7V30h-1.4C229,31.5,228.7,33.6,227.9,35.6 M201.6,42.8c1.4,0,2.6-1.2,2.6-2.6
		c0-1.4-1.2-2.6-2.6-2.6c-1.4,0-2.6,1.2-2.6,2.6C199,41.6,200.2,42.8,201.6,42.8 M210.6,7.3l-0.2,0l-0.1,0c-7.6,0-14.1,1.3-19.6,4
		c-4.4,2.1-8,5.1-10.8,8.8c-4.6,6.2-5.3,12.3-5.4,13l0,0.5l0,0.2l0.2,0.2l0.3,0.3c7.4,7.2,18,7.8,21.1,7.8c0.4,0,0.7,0,0.8,0l0.1,0
		c0.8,1.9,2.6,3.2,4.7,3.2c2.1,0,4-1.3,4.7-3.2h15.3h0l0,0l0.1,0c2.3-0.4,4.1-1.7,5.5-3.9h6.5l0,6.7l0,0.5l0.5,0l1.9,0l0.5,0l0-0.5
		l0-6.7h1.2h0.5v-0.5v-1.9v-0.5h-0.5h-1.2v-0.9v-0.5l-0.5,0l-1.9,0l-0.5,0v0.5v0.9H233V28v-0.5h-0.5h-2.7c-0.1-4.3-0.9-8.1-2.6-11.1
		c-1.5-2.6-3.5-4.7-6.1-6.3C216.6,7.5,211.9,7.3,210.6,7.3L210.6,7.3z M177.6,32.6c0.3-1.7,1.3-6.3,4.8-10.9c2.5-3.3,5.8-6,9.8-7.9
		c5-2.4,11.1-3.6,18.2-3.6h0l0.1,0c0,0,0.1,0,0.2,0c1.1,0,5.2,0.2,8.9,2.4c4.9,2.9,7.3,8.1,7.3,15.3c0,0.1-0.1,10-5.4,11.1h-0.6
		V17.8c0-0.2-0.1-1.4-0.8-2.6c-0.7-1.2-2.1-2.6-5-2.6c-2.8,0-4.3,1.4-5,2.6c-0.7,1.1-0.8,2.3-0.8,2.6l0,21.3h-1.1
		c-0.2-1-0.7-2.2-1.6-3.2c-1.2-1.2-2.7-1.8-4.7-1.8c-2,0-3.5,0.6-4.7,1.8c-1,1-1.4,2.2-1.6,3.2C192.4,39,183.8,38.3,177.6,32.6
		L177.6,32.6z M212.2,39.1V17.9c0-0.4,0.3-2.3,2.9-2.3c1.2,0,1.9,0.4,2.4,1.1c0.3,0.5,0.4,1.1,0.4,1.3l0,21.2H212.2L212.2,39.1z
		 M229.6,30.5h0.5v4.6h-1.5C229.2,33.4,229.5,31.7,229.6,30.5L229.6,30.5z M201.6,42.3c-1.2,0-2.1-1-2.1-2.1c0-1.2,1-2.1,2.1-2.1
		c1.2,0,2.1,1,2.1,2.1C203.8,41.3,202.8,42.3,201.6,42.3L201.6,42.3z"/>
</g>
<path id="XMLID_462_" class="st7" d="M78.7,89.9c-1.2,0-2.1-0.9-2.1-2.1c0-1.2,1-2.1,2.1-2.1c1.2,0,2.1,0.9,2.1,2.1
	C80.8,88.9,79.8,89.9,78.7,89.9z M80.2,82.2c0.6-0.3,1.3-0.4,2-0.3c1.2,0.2,2.3,1.2,2.5,2.5c0.2,0.8,0,1.6-0.3,2.2
	c-0.2,0.4-0.7,0.4-1,0.1l-0.6-1c-0.5-0.9-1.3-1.6-2.2-2.2L80,83.2C79.7,82.9,79.8,82.3,80.2,82.2z M78.4,78C72.6,78,68,82.6,68,88.4
	c0,5.7,4.7,10.4,10.4,10.4s10.4-4.6,10.4-10.4C88.8,82.6,84.1,78,78.4,78z"/>
<g id="XMLID_466_">
	<path id="XMLID_34_" class="st8" d="M56.1,106.3c-1.8,0-3.3-1.5-3.3-3.3V72.6c0-2.8,1.7-4.8,4.2-5.3v-0.1l0.7,0
		c0.3-0.8,0.9-1.9,2-2.5c0.8-0.5,1.9-0.7,3.6-0.7h6.3c1.5,0,2.5,0.2,3.4,0.7c1.3,0.8,1.8,1.8,2,2.6h24.1c1.7,0,3,0.5,3.9,1.4
		c0.2,0.2,0.4,0.4,0.5,0.7c0.1,0.2,0.2,0.4,0.3,0.5l0.1,0.1c0.4,0.8,0.5,1.6,0.5,2.6V103c0,1.8-1.5,3.3-3.3,3.3H56.1z M99.2,100.9
		c0-3.5,0-12.3,0-19.2H88.4L88,81.1c-0.1-0.2-0.3-0.4-0.4-0.5l0,0c-0.6-0.6-1.1-1.1-1.3-1.3l-0.1-0.1c-0.3-0.2-0.5-0.4-0.8-0.6
		l0.7-1.3l-0.8,1.2c-0.3-0.2-0.6-0.4-0.9-0.6l0.6-1.4l-0.7,1.3c-0.6-0.4-1.3-0.7-2-0.9L82,77c-0.4-0.1-0.7-0.2-1.1-0.3l-0.2,0
		c-0.3-0.1-0.7-0.1-1.1-0.2l-0.2,0c-0.4,0-0.8-0.1-1.2-0.1c-3.8,0-7.3,1.7-9.6,4.7l-0.5,0.6H58.2v19.2H99.2z"/>
	<path id="XMLID_28_" class="st6" d="M69.7,65.5c1.2,0,2,0.1,2.6,0.5c1.1,0.6,1.3,1.5,1.5,2.2c0,0,0.1,0.3,0.1,0.5
		c0.1,0,0.2,0,0.2,0h25.1c1.3,0,2.2,0.3,2.9,1c0.1,0.1,0.2,0.3,0.3,0.4c0.1,0.1,0.2,0.3,0.2,0.4l0,0c0.3,0.5,0.4,1.2,0.4,2V103
		c0,1-0.8,1.8-1.8,1.8H56.1c-1,0-1.8-0.8-1.8-1.8V72.6c0-2.3,1.5-3.9,3.9-3.9c0,0,0.2,0,0.4,0c0,0,0-0.1,0-0.1s0.2,0,0.4,0
		c0-0.1,0.1-0.3,0.1-0.3c0.2-0.8,0.6-1.8,1.5-2.4c0.5-0.3,1.2-0.5,2.9-0.5H69.7 M56.7,102.4c1,0,43,0,44,0c0-0.7,0-13.6,0-22.2H89.1
		c-0.3-0.4-0.7-0.8-1-1.2c0,0,0.4,0.4,0.5,0.5c-0.3-0.3-1.1-1.1-1.4-1.4c0,0-0.1,0-0.1-0.1c-0.3-0.3-0.6-0.5-1-0.7
		c0,0-0.1-0.1-0.1-0.1c-0.3-0.2-0.7-0.4-1-0.6c0,0-0.1,0-0.1-0.1c-0.7-0.4-1.5-0.7-2.3-1c0,0-0.1,0-0.1-0.1
		c-0.4-0.1-0.8-0.2-1.2-0.3c-0.1,0-0.1,0-0.2,0c-0.4-0.1-0.8-0.1-1.2-0.2c-0.1,0-0.1,0-0.2,0c-0.4,0-0.9-0.1-1.3-0.1
		c-4.4,0-8.3,2.1-10.8,5.3H56.7c0,1.4,0,2.9,0,4.4C56.7,92.7,56.7,101.9,56.7,102.4 M88.6,79.5C88.6,79.5,88.6,79.6,88.6,79.5
		L88.6,79.5C88.6,79.6,88.6,79.6,88.6,79.5 M69.7,62.5h-6.3c-2,0-3.3,0.2-4.4,0.9c-1,0.6-1.7,1.5-2.2,2.3h-1.3v0.6
		c-2.6,1-4.2,3.4-4.2,6.4V103c0,2.7,2.2,4.8,4.8,4.8h45.1c2.7,0,4.8-2.2,4.8-4.8V72.6c0-1.2-0.2-2.3-0.7-3.3l-0.1-0.3l0,0
		c-0.1-0.2-0.2-0.3-0.3-0.5l0,0l0,0c-0.2-0.3-0.4-0.6-0.7-0.9c-1.2-1.2-2.9-1.8-5-1.8H76.1c-0.4-0.8-1.1-1.6-2.2-2.3l0,0l0,0
		C72.7,62.8,71.4,62.5,69.7,62.5L69.7,62.5z M59.7,83.2h7.9h1.5L70,82c2-2.6,5.1-4.2,8.4-4.2c0.3,0,0.6,0,1,0.1l0,0l0,0l0.1,0
		c0.3,0,0.6,0.1,0.9,0.1l0.1,0l0.1,0c0.3,0.1,0.6,0.2,0.9,0.2l0.1,0l0.1,0c0.6,0.2,1.2,0.5,1.8,0.8l0.1,0.1c0.3,0.2,0.5,0.3,0.8,0.5
		l0.1,0.1c0.2,0.2,0.5,0.3,0.7,0.5l0,0l0,0l0,0c0.1,0.1,0.6,0.6,1.1,1.1c0.1,0.1,0.2,0.3,0.4,0.4l0.9,1.2h1.5h8.5
		c0,5.8,0,12.4,0,16.2h-38V84.6V83.2L59.7,83.2z"/>
</g>
</svg>
