<?xml version="1.0" encoding="utf-8"?>
<!-- Generator: Adobe Illustrator 19.0.0, SVG Export Plug-In . SVG Version: 6.00 Build 0)  -->
<svg version="1.1" id="Layer_1" xmlns="http://www.w3.org/2000/svg" xmlns:xlink="http://www.w3.org/1999/xlink" x="0px" y="0px"
	 viewBox="0 0 251.3 144" style="enable-background:new 0 0 251.3 144;" xml:space="preserve">
<style type="text/css">
	.st0{fill:none;stroke:#010101;stroke-width:3;stroke-miterlimit:10;}
	.st1{fill:#010101;stroke:#010101;stroke-miterlimit:10;}
	.st2{fill:none;stroke:#0C0E0C;stroke-width:3;stroke-miterlimit:10;}
	.st3{fill:#010101;}
	.st4{fill:#020202;}
</style>
<path id="XMLID_50_" class="st0" d="M47,61.6c-1.8,0-3.2-1.5-3.2-3.2s1.5-3.2,3.2-3.2s3.2,1.5,3.2,3.2S48.8,61.6,47,61.6z M19,67
	c-1.8,0-3.2-1.5-3.2-3.2s1.5-3.2,3.2-3.2s3.2,1.5,3.2,3.2S20.8,67,19,67z M55.2,26c-0.7-0.6-1.6-0.8-2.5-0.6l-28,5.4
	c-1.4,0.3-2.4,1.5-2.4,2.9v21.4c-1-0.4-2.1-0.6-3.2-0.6c-5.1,0-9.2,4.1-9.2,9.2S13.9,73,19,73c5.1,0,9.2-4.1,9.2-9.2V36.2l22-4.2
	v17.7c-1-0.4-2.1-0.6-3.2-0.6c-5.1,0-9.2,4.1-9.2,9.2s4.1,9.2,9.2,9.2c5.1,0,9.2-4.1,9.2-9.2v-30C56.3,27.4,55.9,26.6,55.2,26z"/>
<path id="XMLID_106_" class="st1" d="M124.5,27.5c-9.1,0-16.5,7.4-16.5,16.5c0,8,13,25.8,16.5,30.5C128,69.8,141,51.9,141,44
	C141,34.9,133.6,27.5,124.5,27.5z M124.5,77.4c-0.3,0-0.7-0.1-0.9-0.4c-0.8-1-17.8-23.1-17.8-33c0-10.3,8.4-18.7,18.7-18.7
	s18.7,8.4,18.7,18.7c0,9.9-17,32-17.8,33C125.2,77.3,124.8,77.4,124.5,77.4z"/>
<path id="XMLID_103_" class="st1" d="M124.5,36.3c-4.2,0-7.7,3.5-7.7,7.7s3.5,7.7,7.7,7.7c4.2,0,7.7-3.5,7.7-7.7
	S128.8,36.3,124.5,36.3z M124.5,53.8c-5.4,0-9.9-4.4-9.9-9.9s4.4-9.9,9.9-9.9c5.4,0,9.9,4.4,9.9,9.9S129.9,53.8,124.5,53.8z"/>
<g id="XMLID_107_">
	<path id="XMLID_105_" class="st2" d="M160.8,103.8c-4.5-1.9-8.4-4.3-11.4-7c-0.4,0.7-0.8,1.5-1.1,2.3c-3.7,8.7-1.9,17.9,4,21.4
		c0,0,0.2,1.1,0.8,1.4c0.7,0.3,1.6-0.4,1.6-0.4c6.6,1.8,14.5-3.3,18.1-12c0.3-0.8,0.6-1.6,0.9-2.4
		C169.7,106.9,165.3,105.7,160.8,103.8z"/>
	<path id="XMLID_104_" class="st2" d="M177.8,102.3C177.8,102.4,177.8,102.5,177.8,102.3C178.8,96.8,177.9,101.6,177.8,102.3
		c1.2-6.4-2.7-12.8-8.5-15.8c0.4-1.4,1.7-5.1,2.4-6.9c0.3-0.8,0.6-1.7,0.2-2.5c-0.3-0.8-1.1-1.1-1.9-1.1c-2.4-0.1-2,1.6-1.6,3.9
		c0.3,1.8-0.7,4.7-1.1,5.8c-6.1-2.1-13.4-0.4-17.2,4.8c-0.6,0.8-1.1,1.7-1.5,2.6c-0.2,0.5-0.1,1.1,0.3,1.5c3,3,7.3,5.8,12.4,8
		c5.1,2.2,10.1,3.3,14.3,3.4c0.6,0,1-0.3,1.3-0.8C177.3,104.3,177.6,103.3,177.8,102.3z"/>
</g>
<path id="XMLID_116_" class="st3" d="M211.4,40.7h-12.6c-0.9,0-1.6,0.7-1.6,1.6v6.2c0,0.9,0.7,1.6,1.6,1.6h12.6
	c0.9,0,1.6-0.7,1.6-1.6v-6.2C213.1,41.4,212.3,40.7,211.4,40.7z"/>
<path id="XMLID_73_" class="st1" d="M238.7,59.4H236c0.8-2,1.1-4.1,1.3-5.6h1.4V59.4z M229.6,63.4h-1.2V41.6c0-0.1,0-1.2-0.7-2.3
	c-0.6-1.1-1.9-2.4-4.5-2.4c-2.6,0-3.9,1.3-4.6,2.4c-0.7,1.1-0.7,2.2-0.7,2.3v21.8h-2c-0.1-0.9-0.5-2.2-1.6-3.3
	c-1.1-1.1-2.5-1.6-4.3-1.6c-1.8,0-3.3,0.5-4.3,1.6c-1,1.1-1.4,2.4-1.6,3.3c-3,0-12.2-0.6-18.9-6.8c0.2-1.5,1.2-6.5,4.9-11.4
	c2.6-3.4,5.9-6.1,9.9-8.1c5.1-2.5,11.3-3.7,18.5-3.7h0c0,0,0.1,0,0.2,0c1.2,0,5.3,0.2,9.2,2.5c5,3,7.6,8.3,7.6,15.8
	C235.5,51.9,235.4,62.3,229.6,63.4z M226.5,63.4h-6.7V41.7c0-0.3,0.3-2.8,3.4-2.8c1.3,0,2.3,0.5,2.8,1.3c0.4,0.7,0.5,1.4,0.5,1.5
	V63.4z M209.8,66.6c-1.4,0-2.6-1.2-2.6-2.6c0-1.4,1.2-2.6,2.6-2.6c1.4,0,2.6,1.2,2.6,2.6C212.4,65.4,211.2,66.6,209.8,66.6z
	 M246.1,59.4h-1.7v-1.4l-1.9,0v1.4h-1.8v-7.6h-3.2c0,0,0-0.1,0-0.1c0-4.4-0.9-8.2-2.6-11.3c-1.4-2.5-3.4-4.6-5.9-6.1
	c-4.3-2.6-8.9-2.8-10.2-2.8c-0.1,0-0.2,0-0.3,0c-7.5,0-14,1.3-19.3,3.9c-4.3,2.1-7.9,5-10.6,8.7c-4.7,6.3-5.2,12.5-5.3,12.7l0,0.5
	l0.3,0.3c7.3,7.1,17.7,7.6,20.7,7.6c0.5,0,0.8,0,0.8,0l0.4,0c0.6,1.9,2.3,3.2,4.4,3.2c2,0,3.8-1.4,4.4-3.2h15.7l0.1,0
	c2.5-0.4,4.2-2,5.3-3.9h7.3l0,7.2l1.9,0l0-7.2h1.7V59.4z"/>
<path id="XMLID_176_" class="st4" d="M85.5,112.9c-2,0-3.6-1.6-3.6-3.6c0-2,1.6-3.6,3.6-3.6c2,0,3.6,1.6,3.6,3.6
	C89.1,111.3,87.5,112.9,85.5,112.9z M86.5,101.8c-5.8,0-10.4,4.6-10.4,10.4c0,5.7,4.7,10.4,10.4,10.4s10.4-4.6,10.4-10.4
	C96.9,106.5,92.3,101.8,86.5,101.8z"/>
<path id="XMLID_90_" class="st4" d="M108.8,126.3c-1,0-43,0-44,0c0-0.6,0-9.8,0-17.8c0-1.5,0-3,0-4.4h10.9c2.5-3.2,6.4-5.3,10.8-5.3
	c0.4,0,0.9,0,1.3,0.1c0.1,0,0.1,0,0.2,0c0.4,0,0.8,0.1,1.2,0.2c0.1,0,0.1,0,0.2,0c0.4,0.1,0.8,0.2,1.2,0.3c0.1,0,0.1,0,0.1,0.1
	c0.8,0.3,1.6,0.6,2.3,1c0,0,0.1,0,0.1,0.1c0.3,0.2,0.7,0.4,1,0.6c0,0,0.1,0.1,0.1,0.1c0.3,0.2,0.6,0.5,1,0.7c0,0,0.1,0,0.1,0.1
	c0.3,0.3,0.6,0.6,0.9,0.9c0,0,0,0,0,0l0,0c0.4,0.4,0.7,0.8,1,1.2h11.5C108.8,112.7,108.8,125.6,108.8,126.3z M110.8,94.4L110.8,94.4
	c-0.1-0.2-0.2-0.3-0.2-0.4c-0.1-0.2-0.2-0.3-0.3-0.4c-0.7-0.6-1.6-1-2.9-1H82.3c0,0-0.1,0-0.2,0C82,92.4,82,92,82,92
	c-0.2-0.7-0.4-1.6-1.5-2.2c-0.6-0.3-1.4-0.5-2.6-0.5h-6.3c-1.7,0-2.4,0.2-2.9,0.5c-0.9,0.5-1.3,1.6-1.5,2.4c0,0,0,0.2-0.1,0.3
	c-0.1,0-0.4,0-0.4,0s0,0.1,0,0.1c-0.2,0-0.4,0-0.4,0c-2.3,0-3.9,1.5-3.9,3.9v30.4c0,1,0.8,1.8,1.8,1.8h45.1c1,0,1.8-0.8,1.8-1.8
	V96.4C111.2,95.6,111,94.9,110.8,94.4z"/>
</svg>
