<?xml version="1.0" encoding="UTF-8" standalone="no"?>
<svg width="560px" height="248px" viewBox="0 0 560 248" version="1.1" xmlns="http://www.w3.org/2000/svg" xmlns:xlink="http://www.w3.org/1999/xlink" xmlns:sketch="http://www.bohemiancoding.com/sketch/ns">
    <!-- Generator: Sketch 3.3.2 (12043) - http://www.bohemiancoding.com/sketch -->
    <title>memory_img</title>
    <desc>Created with Sketch.</desc>
    <defs></defs>
    <g id="Page-1" stroke="none" stroke-width="1" fill="none" fill-rule="evenodd" sketch:type="MSPage">
        <g id="memory_img" sketch:type="MSLayerGroup" transform="translate(3.000000, 3.000000)">
            <path d="M87.4117647,86.2211538 C83.1764706,86.2211538 79.8823529,82.6875 79.8823529,78.6826923 C79.8823529,74.6778846 83.4117647,71.1442308 87.4117647,71.1442308 C91.4117647,71.1442308 94.9411765,74.6778846 94.9411765,78.6826923 C94.9411765,82.6875 91.6470588,86.2211538 87.4117647,86.2211538 L87.4117647,86.2211538 Z M21.5294118,98.9423077 C17.2941176,98.9423077 14,95.4086538 14,91.4038462 C14,87.3990385 17.5294118,83.8653846 21.5294118,83.8653846 C25.5294118,83.8653846 29.0588235,87.3990385 29.0588235,91.4038462 C29.0588235,95.4086538 25.7647059,98.9423077 21.5294118,98.9423077 L21.5294118,98.9423077 Z M106.705882,2.35576923 C105.058824,0.942307692 102.941176,0.471153846 100.823529,0.942307692 L34.9411765,13.6634615 C31.6470588,14.3701923 29.2941176,17.1971154 29.2941176,20.4951923 L29.2941176,70.9086538 C26.9411765,69.9663462 24.3529412,69.4951923 21.7647059,69.4951923 C9.76470588,69.4951923 0.117647059,79.1538462 0.117647059,91.1682692 C0.117647059,103.182692 9.52941176,113.076923 21.5294118,113.076923 C33.5294118,113.076923 43.1764706,103.418269 43.1764706,91.4038462 L43.1764706,26.3846154 L94.9411765,16.4903846 L94.9411765,58.1875 C92.5882353,57.2451923 90,56.7740385 87.4117647,56.7740385 C75.4117647,56.7740385 65.7647059,66.4326923 65.7647059,78.4471154 C65.7647059,90.4615385 75.4117647,100.120192 87.4117647,100.120192 C99.4117647,100.120192 109.058824,90.4615385 109.058824,78.4471154 L109.058824,7.77403846 C109.294118,5.65384615 108.352941,3.76923077 106.705882,2.35576923 L106.705882,2.35576923 Z" id="XMLID_50_" stroke="#000000" stroke-width="6" sketch:type="MSShapeGroup"></path>
            <path d="M269.764706,5.88942308 C248.352941,5.88942308 230.941176,23.3221154 230.941176,44.7596154 C230.941176,63.6057692 261.529412,105.538462 269.764706,116.610577 C278,105.538462 308.588235,63.3701923 308.588235,44.7596154 C308.588235,23.3221154 291.176471,5.88942308 269.764706,5.88942308 L269.764706,5.88942308 Z M269.764706,123.442308 C269.058824,123.442308 268.117647,123.206731 267.647059,122.5 C265.764706,120.144231 225.764706,68.0817308 225.764706,44.7596154 C225.764706,20.4951923 245.529412,0.706730769 269.764706,0.706730769 C294,0.706730769 313.764706,20.4951923 313.764706,44.7596154 C313.764706,68.0817308 273.764706,120.144231 271.882353,122.5 C271.411765,123.206731 270.470588,123.442308 269.764706,123.442308 L269.764706,123.442308 Z" id="XMLID_106_" stroke="#000000" fill="#000000" sketch:type="MSShapeGroup"></path>
            <path d="M269.764706,26.6201923 C259.882353,26.6201923 251.647059,34.8653846 251.647059,44.7596154 C251.647059,54.6538462 259.882353,62.8990385 269.764706,62.8990385 C279.647059,62.8990385 287.882353,54.6538462 287.882353,44.7596154 C287.882353,34.8653846 279.882353,26.6201923 269.764706,26.6201923 L269.764706,26.6201923 Z M269.764706,67.8461538 C257.058824,67.8461538 246.470588,57.4807692 246.470588,44.5240385 C246.470588,31.5673077 256.823529,21.2019231 269.764706,21.2019231 C282.470588,21.2019231 293.058824,31.5673077 293.058824,44.5240385 C293.058824,57.4807692 282.470588,67.8461538 269.764706,67.8461538 L269.764706,67.8461538 Z" id="XMLID_103_" stroke="#000000" fill="#000000" sketch:type="MSShapeGroup"></path>
            <g id="XMLID_107_" transform="translate(320.352941, 126.788462)" stroke="#000000" stroke-width="6" sketch:type="MSShapeGroup">
                <path d="M34.8235294,65.8461538 C24.2352941,61.3701923 15.0588235,55.7163462 8,49.3557692 C7.05882353,51.0048077 6.11764706,52.8894231 5.41176471,54.7740385 C-3.29411765,75.2692308 0.941176471,96.9423077 14.8235294,105.1875 C14.8235294,105.1875 15.2941176,107.778846 16.7058824,108.485577 C18.3529412,109.192308 20.4705882,107.543269 20.4705882,107.543269 C36,111.783654 54.5882353,99.7692308 63.0588235,79.2740385 C63.7647059,77.3894231 64.4705882,75.5048077 65.1764706,73.6201923 C55.7647059,73.1490385 45.4117647,70.3221154 34.8235294,65.8461538 L34.8235294,65.8461538 Z" id="XMLID_105_"></path>
                <path d="M74.8235294,62.3125 C74.8235294,62.5480769 74.8235294,62.7836538 74.8235294,62.3125 C77.1764706,49.3557692 75.0588235,60.6634615 74.8235294,62.3125 C77.6470588,47.2355769 68.4705882,32.1586538 54.8235294,25.0913462 C55.7647059,21.7932692 58.8235294,13.0769231 60.4705882,8.83653846 C61.1764706,6.95192308 61.8823529,4.83173077 60.9411765,2.94711538 C60.2352941,1.0625 58.3529412,0.355769231 56.4705882,0.355769231 C50.8235294,0.120192308 51.7647059,4.125 52.7058824,9.54326923 C53.4117647,13.7836538 51.0588235,20.6153846 50.1176471,23.2067308 C35.7647059,18.2596154 18.5882353,22.2644231 9.64705882,34.5144231 C8.23529412,36.3990385 7.05882353,38.5192308 6.11764706,40.6394231 C5.64705882,41.8173077 5.88235294,43.2307692 6.82352941,44.1730769 C13.8823529,51.2403846 24,57.8365385 36,63.0192308 C48,68.2019231 59.7647059,70.7932692 69.6470588,71.0288462 C71.0588235,71.0288462 72,70.3221154 72.7058824,69.1442308 C73.6470588,67.0240385 74.3529412,64.6682692 74.8235294,62.3125 L74.8235294,62.3125 Z" id="XMLID_104_"></path>
            </g>
            <path d="M474.235294,36.9855769 L444.588235,36.9855769 C442.470588,36.9855769 440.823529,38.6346154 440.823529,40.7548077 L440.823529,55.3605769 C440.823529,57.4807692 442.470588,59.1298077 444.588235,59.1298077 L474.235294,59.1298077 C476.352941,59.1298077 478,57.4807692 478,55.3605769 L478,40.7548077 C478.235294,38.6346154 476.352941,36.9855769 474.235294,36.9855769 L474.235294,36.9855769 Z" id="XMLID_116_" fill="#000000" sketch:type="MSShapeGroup"></path>
            <path d="M538.470588,81.0384615 L532.117647,81.0384615 C534,76.3269231 534.705882,71.3798077 535.176471,67.8461538 L538.470588,67.8461538 L538.470588,81.0384615 L538.470588,81.0384615 Z M517.058824,90.4615385 L514.235294,90.4615385 L514.235294,39.1057692 C514.235294,38.8701923 514.235294,36.2788462 512.588235,33.6875 C511.176471,31.0961538 508.117647,28.0336538 502,28.0336538 C495.882353,28.0336538 492.823529,31.0961538 491.176471,33.6875 C489.529412,36.2788462 489.529412,38.8701923 489.529412,39.1057692 L489.529412,90.4615385 L484.823529,90.4615385 C484.588235,88.3413462 483.647059,85.2788462 481.058824,82.6875 C478.470588,80.0961538 475.176471,78.9182692 470.941176,78.9182692 C466.705882,78.9182692 463.176471,80.0961538 460.823529,82.6875 C458.470588,85.2788462 457.529412,88.3413462 457.058824,90.4615385 C450,90.4615385 428.352941,89.0480769 412.588235,74.4423077 C413.058824,70.9086538 415.411765,59.1298077 424.117647,47.5865385 C430.235294,39.5769231 438,33.2163462 447.411765,28.5048077 C459.411765,22.6153846 474,19.7884615 490.941176,19.7884615 L490.941176,19.7884615 L491.411765,19.7884615 C494.235294,19.7884615 503.882353,20.2596154 513.058824,25.6778846 C524.823529,32.7451923 530.941176,45.2307692 530.941176,62.8990385 C530.941176,63.3701923 530.705882,87.8701923 517.058824,90.4615385 L517.058824,90.4615385 Z M509.764706,90.4615385 L494,90.4615385 L494,39.3413462 C494,38.6346154 494.705882,32.7451923 502,32.7451923 C505.058824,32.7451923 507.411765,33.9230769 508.588235,35.8076923 C509.529412,37.4567308 509.764706,39.1057692 509.764706,39.3413462 L509.764706,90.4615385 L509.764706,90.4615385 Z M470.470588,98 C467.176471,98 464.352941,95.1730769 464.352941,91.875 C464.352941,88.5769231 467.176471,85.75 470.470588,85.75 C473.764706,85.75 476.588235,88.5769231 476.588235,91.875 C476.588235,95.1730769 473.764706,98 470.470588,98 L470.470588,98 Z M555.882353,81.0384615 L551.882353,81.0384615 L551.882353,77.7403846 L547.411765,77.7403846 L547.411765,81.0384615 L543.176471,81.0384615 L543.176471,63.1346154 L535.647059,63.1346154 L535.647059,62.8990385 C535.647059,52.5336538 533.529412,43.5817308 529.529412,36.2788462 C526.235294,30.3894231 521.529412,25.4423077 515.647059,21.9086538 C505.529412,15.7836538 494.705882,15.3125 491.647059,15.3125 L490.941176,15.3125 C473.294118,15.3125 458,18.375 445.529412,24.5 C435.411765,29.4471154 426.941176,36.2788462 420.588235,44.9951923 C409.529412,59.8365385 408.352941,74.4423077 408.117647,74.9134615 L408.117647,76.0913462 L408.823529,76.7980769 C426,93.5240385 450.470588,94.7019231 457.529412,94.7019231 L459.411765,94.7019231 L460.352941,94.7019231 C461.764706,99.1778846 465.764706,102.240385 470.705882,102.240385 C475.411765,102.240385 479.647059,98.9423077 481.058824,94.7019231 L518,94.7019231 L518.235294,94.7019231 C524.117647,93.7596154 528.117647,89.9903846 530.705882,85.5144231 L547.882353,85.5144231 L547.882353,102.475962 L552.352941,102.475962 L552.352941,85.5144231 L556.352941,85.5144231 L556.352941,81.0384615 L555.882353,81.0384615 Z" id="XMLID_73_" stroke="#000000" fill="#000000" sketch:type="MSShapeGroup"></path>
            <path d="M178,207.072115 C173.294118,207.072115 169.529412,203.302885 169.529412,198.591346 C169.529412,193.879808 173.294118,190.110577 178,190.110577 C182.705882,190.110577 186.470588,193.879808 186.470588,198.591346 C186.470588,203.302885 182.705882,207.072115 178,207.072115 L178,207.072115 Z M180.352941,180.923077 C166.705882,180.923077 155.882353,191.759615 155.882353,205.423077 C155.882353,218.850962 166.941176,229.923077 180.352941,229.923077 C193.764706,229.923077 204.823529,219.086538 204.823529,205.423077 C204.823529,191.995192 194,180.923077 180.352941,180.923077 L180.352941,180.923077 Z" id="XMLID_176_" fill="#000000" sketch:type="MSShapeGroup"></path>
            <path d="M232.823529,238.639423 L129.294118,238.639423 L129.294118,196.706731 L129.294118,186.341346 L154.941176,186.341346 C160.823529,178.802885 170,173.855769 180.352941,173.855769 C181.294118,173.855769 182.470588,173.855769 183.411765,174.091346 L183.882353,174.091346 C184.823529,174.091346 185.764706,174.326923 186.705882,174.5625 L187.176471,174.5625 C188.117647,174.798077 189.058824,175.033654 190,175.269231 C190.235294,175.269231 190.235294,175.269231 190.235294,175.504808 C192.117647,176.211538 194,176.918269 195.647059,177.860577 C195.647059,177.860577 195.882353,177.860577 195.882353,178.096154 C196.588235,178.567308 197.529412,179.038462 198.235294,179.509615 L198.470588,179.745192 C199.176471,180.216346 199.882353,180.923077 200.823529,181.394231 C200.823529,181.394231 201.058824,181.394231 201.058824,181.629808 C201.764706,182.336538 202.470588,183.043269 203.176471,183.75 L203.176471,183.75 L203.176471,183.75 C204.117647,184.692308 204.823529,185.634615 205.529412,186.576923 L232.588235,186.576923 C232.823529,206.600962 232.823529,236.990385 232.823529,238.639423 L232.823529,238.639423 Z M237.529412,163.490385 L237.529412,163.490385 C237.294118,163.019231 237.058824,162.783654 237.058824,162.548077 C236.823529,162.076923 236.588235,161.841346 236.352941,161.605769 C234.705882,160.192308 232.588235,159.25 229.529412,159.25 L170.470588,159.25 L170,159.25 C169.764706,158.778846 169.764706,157.836538 169.764706,157.836538 C169.294118,156.1875 168.823529,154.067308 166.235294,152.653846 C164.823529,151.947115 162.941176,151.475962 160.117647,151.475962 L145.294118,151.475962 C141.294118,151.475962 139.647059,151.947115 138.470588,152.653846 C136.352941,153.831731 135.411765,156.423077 134.941176,158.307692 C134.941176,158.307692 134.941176,158.778846 134.705882,159.014423 L133.764706,159.014423 L133.764706,159.25 L132.823529,159.25 C127.411765,159.25 123.647059,162.783654 123.647059,168.4375 L123.647059,240.052885 C123.647059,242.408654 125.529412,244.293269 127.882353,244.293269 L234,244.293269 C236.352941,244.293269 238.235294,242.408654 238.235294,240.052885 L238.235294,168.201923 C238.470588,166.317308 238,164.668269 237.529412,163.490385 L237.529412,163.490385 Z" id="XMLID_90_" fill="#000000" sketch:type="MSShapeGroup"></path>
        </g>
    </g>
</svg>