<?xml version="1.0" encoding="UTF-8" standalone="no"?>
<svg width="337px" height="301px" viewBox="0 0 337 301" version="1.1" xmlns="http://www.w3.org/2000/svg" xmlns:xlink="http://www.w3.org/1999/xlink" xmlns:sketch="http://www.bohemiancoding.com/sketch/ns">
    <!-- Generator: Sketch 3.3.2 (12043) - http://www.bohemiancoding.com/sketch -->
    <title>people_img</title>
    <desc>Created with Sketch.</desc>
    <defs></defs>
    <g id="Page-1" stroke="none" stroke-width="1" fill="none" fill-rule="evenodd" sketch:type="MSPage">
        <g id="people_img" sketch:type="MSLayerGroup" transform="translate(0.000000, 3.000000)">
            <path d="M266.041667,131.023529 L291.1875,130.669412" id="XMLID_134_" fill="#010101" sketch:type="MSShapeGroup"></path>
            <path d="M266.041667,131.023529 L291.1875,130.669412" id="XMLID_133_" stroke="#FFFFFF" stroke-width="0.75" sketch:type="MSShapeGroup"></path>
            <path d="M195.916667,113.671765 C187.770833,118.275294 178.5625,120.754118 169,120.754118 C153.770833,120.754118 139.25,114.734118 128.270833,103.402353 C117.291667,92.0705882 111.270833,77.1976471 111.270833,60.9082353 C111.270833,38.5988235 122.604167,18.4141176 141.020833,7.79058824 C149.166667,3.18705882 158.375,0.708235294 167.9375,0.354117647 C183.166667,0.354117647 197.6875,6.37411765 208.666667,17.7058824 C219.645833,29.0376471 225.666667,43.9105882 225.666667,60.2 C225.666667,82.5094118 214.333333,103.048235 195.916667,113.671765 L195.916667,113.671765 Z" id="XMLID_122_" stroke="#010101" stroke-width="6" sketch:type="MSShapeGroup"></path>
            <path d="M297.5625,147.667059 C291.541667,151.208235 284.458333,152.978824 277.375,152.978824 C266.041667,152.978824 255.0625,148.375294 246.916667,139.876471 C238.770833,131.377647 234.166667,120.045882 234.166667,108.005882 C234.166667,91.3623529 242.666667,76.1352941 256.479167,67.9905882 C262.5,64.4494118 269.583333,62.6788235 276.666667,62.6788235 C288,62.6788235 298.979167,67.2823529 307.125,75.7811765 C315.270833,84.28 319.875,95.6117647 319.875,107.651765 C320.229167,124.295294 311.729167,139.876471 297.5625,147.667059 L297.5625,147.667059 Z" id="XMLID_121_" stroke="#010101" stroke-width="6" sketch:type="MSShapeGroup"></path>
            <path d="M215.041667,119.691765 C211.145833,123.587059 206.541667,126.774118 201.583333,129.607059 C191.666667,135.272941 180.333333,138.46 169,138.46 L168.645833,138.46 C151.291667,138.46 135,131.731765 122.25,119.691765 C115.166667,125.003529 109.145833,131.377647 104.1875,139.168235 L107.020833,141.292941 C125.791667,155.811765 137.125,178.829412 137.125,203.263529 C137.125,222.385882 130.041667,246.465882 117.645833,265.588235 C131.458333,284.356471 149.520833,297.812941 169,297.812941 C188.479167,297.812941 206.541667,284.356471 220.354167,265.588235 C207.958333,246.111765 200.520833,222.385882 200.520833,203.263529 C200.520833,178.829412 211.5,155.457647 230.270833,140.938824 L232.75,138.814118 C228.145833,131.377647 222.125,124.649412 215.041667,119.691765 L215.041667,119.691765 Z" id="XMLID_120_" fill="#010101" sketch:type="MSShapeGroup"></path>
            <path d="M312.083333,152.270588 C308.895833,155.103529 305.708333,158.290588 301.8125,160.415294 C294.375,164.664706 285.875,167.851765 277.375,167.851765 L277.020833,167.851765 C263.916667,167.851765 251.875,162.185882 241.958333,152.978824 C227.4375,164.310588 217.875,182.370588 217.875,202.909412 C217.875,237.258824 244.791667,286.481176 277.375,286.127059 C309.958333,285.772941 336.520833,236.550588 336.166667,202.201176 C336.520833,181.662353 326.958333,163.602353 312.083333,152.270588 L312.083333,152.270588 Z" id="XMLID_119_" fill="#010101" sketch:type="MSShapeGroup"></path>
            <path d="M80.8125,148.375294 C74.7916667,151.916471 67.7083333,153.687059 60.625,153.687059 C49.2916667,153.687059 38.3125,149.083529 30.1666667,140.584706 C22.0208333,132.085882 17.4166667,120.754118 17.4166667,108.714118 C17.4166667,92.0705882 25.9166667,76.8435294 39.7291667,68.6988235 C45.75,65.1576471 52.8333333,63.3870588 59.9166667,63.3870588 C71.25,63.3870588 82.2291667,67.9905882 90.375,76.4894118 C98.5208333,84.9882353 103.125,96.32 103.125,108.36 C103.125,125.003529 94.625,140.584706 80.8125,148.375294 L80.8125,148.375294 Z" id="XMLID_118_" stroke="#010101" stroke-width="6" sketch:type="MSShapeGroup"></path>
            <path d="M94.9791667,152.978824 C91.7916667,155.811765 88.6041667,158.998824 84.7083333,161.123529 C77.2708333,165.372941 68.7708333,168.56 60.2708333,168.56 L59.9166667,168.56 C46.8125,168.56 34.7708333,162.894118 24.8541667,153.687059 C10.3333333,165.018824 0.770833333,183.078824 0.770833333,203.617647 C0.770833333,237.967059 27.6875,287.189412 60.2708333,286.835294 C92.8541667,286.481176 119.416667,237.258824 119.0625,202.909412 C119.416667,182.370588 109.854167,164.310588 94.9791667,152.978824 L94.9791667,152.978824 Z" id="XMLID_41_" fill="#000000" sketch:type="MSShapeGroup"></path>
        </g>
    </g>
</svg>