<?xml version="1.0" encoding="utf-8"?>
<!-- Generator: Adobe Illustrator 19.0.0, SVG Export Plug-In . SVG Version: 6.00 Build 0)  -->
<svg version="1.1" id="Layer_1" xmlns="http://www.w3.org/2000/svg" xmlns:xlink="http://www.w3.org/1999/xlink" x="0px" y="0px"
	 viewBox="0 0 216 144" style="enable-background:new 0 0 216 144;" xml:space="preserve">
<style type="text/css">
	.st0{fill:#010101;}
	.st1{fill:none;stroke:#FFFFFF;stroke-width:0.75;stroke-miterlimit:10;}
	.st2{fill:none;stroke:#010101;stroke-width:3;stroke-miterlimit:10;}
</style>
<line id="XMLID_134_" class="st0" x1="135.4" y1="68" x2="142.5" y2="67.9"/>
<line id="XMLID_133_" class="st1" x1="135.4" y1="68" x2="142.5" y2="67.9"/>
<path id="XMLID_122_" class="st2" d="M115.6,63.1c-2.3,1.3-4.9,2-7.6,2c-4.3,0-8.4-1.7-11.5-4.9c-3.1-3.2-4.8-7.4-4.8-12
	c0-6.3,3.2-12,8.4-15c2.3-1.3,4.9-2,7.6-2.1c4.3,0,8.4,1.7,11.5,4.9c3.1,3.2,4.8,7.4,4.8,12C124,54.3,120.8,60.1,115.6,63.1z"/>
<path id="XMLID_121_" class="st2" d="M144.3,72.7c-1.7,1-3.7,1.5-5.7,1.5c-3.2,0-6.3-1.3-8.6-3.7c-2.3-2.4-3.6-5.6-3.6-9
	c0-4.7,2.4-9,6.3-11.3c1.7-1,3.7-1.5,5.7-1.5c3.2,0,6.3,1.3,8.6,3.7c2.3,2.4,3.6,5.6,3.6,9C150.7,66.1,148.3,70.5,144.3,72.7z"/>
<path id="XMLID_120_" class="st0" d="M121,64.8c-1.1,1.1-2.4,2-3.8,2.8c-2.8,1.6-6,2.5-9.2,2.5l-0.1,0c-4.9,0-9.5-1.9-13.1-5.3
	c-2,1.5-3.7,3.3-5.1,5.5l0.8,0.6c5.3,4.1,8.5,10.6,8.5,17.5c0,5.4-2,12.2-5.5,17.6c3.9,5.3,9,9.1,14.5,9.1c5.5,0,10.6-3.8,14.5-9.1
	c-3.5-5.5-5.6-12.2-5.6-17.6c0-6.9,3.1-13.5,8.4-17.6l0.7-0.6C124.7,68.1,123,66.2,121,64.8z"/>
<path id="XMLID_119_" class="st0" d="M148.4,74c-0.9,0.8-1.8,1.7-2.9,2.3c-2.1,1.2-4.5,2.1-6.9,2.1l-0.1,0c-3.7,0-7.1-1.6-9.9-4.2
	c-4.1,3.2-6.8,8.3-6.8,14.1c0,9.7,7.6,23.6,16.8,23.5s16.7-14,16.6-23.7C155.3,82.3,152.6,77.2,148.4,74z"/>
<path id="XMLID_118_" class="st2" d="M83.1,72.9c-1.7,1-3.7,1.5-5.7,1.5c-3.2,0-6.3-1.3-8.6-3.7c-2.3-2.4-3.6-5.6-3.6-9
	c0-4.7,2.4-9,6.3-11.3c1.7-1,3.7-1.5,5.7-1.5c3.2,0,6.3,1.3,8.6,3.7c2.3,2.4,3.6,5.6,3.6,9C89.4,66.3,87,70.7,83.1,72.9z"/>
<path id="XMLID_41_" class="st0" d="M87.1,74.2c-0.9,0.8-1.8,1.7-2.9,2.3c-2.1,1.2-4.5,2.1-6.9,2.1l-0.1,0c-3.7,0-7.1-1.6-9.9-4.2
	c-4.1,3.2-6.8,8.3-6.8,14.1c0,9.7,7.6,23.6,16.8,23.5s16.7-14,16.6-23.7C94,82.5,91.3,77.4,87.1,74.2z"/>
</svg>
