<?xml version="1.0" encoding="utf-8"?>
<!-- Generator: Adobe Illustrator 19.0.0, SVG Export Plug-In . SVG Version: 6.00 Build 0)  -->
<svg version="1.1" id="Layer_1" xmlns="http://www.w3.org/2000/svg" xmlns:xlink="http://www.w3.org/1999/xlink" x="0px" y="0px"
	 viewBox="0 0 94.7 85.4" style="enable-background:new 0 0 94.7 85.4;" xml:space="preserve">
<style type="text/css">
	.st0{fill:#1D8893;}
	.st1{fill:#1D8893;stroke:#FFFFFF;stroke-width:0.75;stroke-miterlimit:10;}
	.st2{fill:#F3F3F3;stroke:#1D8893;stroke-width:3;stroke-miterlimit:10;}
</style>
<line id="XMLID_454_" class="st0" x1="74.8" y1="38.3" x2="81.9" y2="38.3"/>
<line id="XMLID_455_" class="st1" x1="74.8" y1="38.3" x2="81.9" y2="38.3"/>
<path id="XMLID_456_" class="st2" d="M54.9,33.4c-2.3,1.3-4.9,2-7.6,2c-4.3,0-8.4-1.7-11.5-4.9c-3.1-3.2-4.8-7.4-4.8-12
	c0-6.3,3.2-12,8.4-15c2.3-1.3,4.9-2,7.6-2.1c4.3,0,8.4,1.7,11.5,4.9c3.1,3.2,4.8,7.4,4.8,12C63.4,24.6,60.2,30.4,54.9,33.4z"/>
<path id="XMLID_457_" class="st2" d="M83.7,43.1c-1.7,1-3.7,1.5-5.7,1.5c-3.2,0-6.3-1.3-8.6-3.7c-2.3-2.4-3.6-5.6-3.6-9
	c0-4.7,2.4-9,6.3-11.3c1.7-1,3.7-1.5,5.7-1.5c3.2,0,6.3,1.3,8.6,3.7c2.3,2.4,3.6,5.6,3.6,9C90.1,36.5,87.6,40.8,83.7,43.1z"/>
<path id="XMLID_458_" class="st0" d="M60.4,35.1c-1.1,1.1-2.4,2-3.8,2.8c-2.8,1.6-6,2.5-9.2,2.5h-0.1c-4.9,0-9.5-1.8-13.1-5.3
	c-2,1.5-3.7,3.4-5.1,5.5l0.8,0.6c5.3,4.1,8.5,10.6,8.5,17.5c0,5.4-2,12.2-5.5,17.6c3.9,5.3,9,9.1,14.5,9.1c5.5,0,10.6-3.8,14.5-9.1
	c-3.5-5.5-5.6-12.2-5.6-17.6c0-6.9,3.1-13.5,8.4-17.6l0.7-0.6C64,38.4,62.3,36.6,60.4,35.1z"/>
<path id="XMLID_459_" class="st0" d="M87.8,44.3c-0.9,0.8-1.8,1.5-2.9,2.1c-2.1,1.2-4.5,1.9-6.9,1.9h-0.1c-3.7,0-7.1-1.4-9.9-4
	c-4.1,3.2-6.8,8.4-6.8,14.2c0,9.7,7.6,23.6,16.8,23.6s16.7-14,16.6-23.7C94.7,52.6,92,47.5,87.8,44.3z"/>
<path id="XMLID_460_" class="st2" d="M22.4,43.2c-1.7,1-3.7,1.5-5.7,1.5c-3.2,0-6.3-1.3-8.6-3.7c-2.3-2.4-3.6-5.6-3.6-9
	c0-4.7,2.4-9,6.3-11.3c1.7-1,3.7-1.5,5.7-1.5c3.2,0,6.3,1.3,8.6,3.7c2.3,2.4,3.6,5.6,3.6,9C28.8,36.7,26.4,41,22.4,43.2z"/>
<path id="XMLID_461_" class="st0" d="M26.5,44.5c-0.9,0.8-1.8,1.9-2.9,2.5c-2.1,1.2-4.5,2.3-6.9,2.3h-0.1c-3.7,0-7.1-1.8-9.9-4.4
	C2.7,48.1,0,53.1,0,59c0,9.7,7.6,23.5,16.8,23.5s16.7-14,16.6-23.7C33.4,52.9,30.7,47.7,26.5,44.5z"/>
</svg>
